# xmcd CD database file
#
# Track frame offsets:
#	150
#	12473
#	23070
#	38993
#	49130
#	60250
#	76573
#	87350
#	100593
#	113635
#	124228
#	136573
#	148498
#	158183
#	168460
#	182653
#	194233
#	206633
#	223140
#	234528
#	246353
#	254950
#	268403
#	285530
#	297223
#	308628
#	319175
#	333188
#
# Disc length: 4580 seconds
#
# Revision: 2
# Processed by: cddbd v1.5.1PL0 Copyright (c) Steve Scherf et al.
# Submitted via: CDex 1.51
#
DISCID=a511e21c
DTITLE=Virginia Lee - Remember Me
DYEAR=1900
DGENRE=Country
TTITLE0=Speak Softly My Love
TTITLE1=Here Comes The Hurt Again
TTITLE2=Cu Cu Ru Cu Cu (Du Weise Taube)
TTITLE3=Mr Fire Eyes
TTITLE4=Darling It's Wonderful
TTITLE5=Cu Cu Ru Cu Cu Paloma
TTITLE6=Groen Koringlande
TTITLE7=Goodbye My Love
TTITLE8=Tien Duisend Myl
TTITLE9=Happy Birthday My Darling
TTITLE10=Wish Me A Rainbow
TTITLE11=Once A Day
TTITLE12=Ek Sal Jou Nooit Vergeet Nie
TTITLE13=A Tear Fell
TTITLE14=Sometimes
TTITLE15=Can't Help Falling In Love
TTITLE16=What Have They Done To The Rain?
TTITLE17=Green Grow The Lilacs
TTITLE18=Die Ou Kalahari
TTITLE19=Tennessee Teardrops
TTITLE20=Birds And The Bees
TTITLE21=Words
TTITLE22=Nobody's Child
TTITLE23=My Last Date
TTITLE24=Tahiti
TTITLE25=Jy Is My Liefling
TTITLE26=My Diary
TTITLE27=Tennessee Yodel Polka
EXTD=
EXTT0=
EXTT1=
EXTT2=
EXTT3=
EXTT4=
EXTT5=
EXTT6=
EXTT7=
EXTT8=
EXTT9=
EXTT10=
EXTT11=
EXTT12=
EXTT13=
EXTT14=
EXTT15=
EXTT16=
EXTT17=
EXTT18=
EXTT19=
EXTT20=
EXTT21=
EXTT22=
EXTT23=
EXTT24=
EXTT25=
EXTT26=
EXTT27=
PLAYORDER=
